<svg xmlns="http://www.w3.org/2000/svg" width="16" height="16" viewBox="0 0 16 16"><defs><mask id="m"><rect width="16" height="16" fill="#fff"/><circle cx="12.1" cy="12.1" r="5.1" fill="#000"/></mask></defs><g fill="#D64541" mask="url(#m)"><path d="M8 0.4 C8.9 1.5 9.5 2.2 9.5 3.1 A1.5 1.5 0 0 1 6.5 3.1 C6.5 2.2 7.1 1.5 8 0.4 Z"/><path d="M6.6 5.2 H9.4 V7.4 H6.6 Z"/><path d="M6.3 7.9 H9.7 L10.3 10.7 H5.7 Z"/><path d="M5.4 11.2 H10.6 L11.4 15.5 H4.6 Z M8 12.4 A1.1 1.1 0 0 0 6.9 13.5 L6.9 15.5 L9.1 15.5 L9.1 13.5 A1.1 1.1 0 0 0 8 12.4 Z" fill-rule="evenodd"/><rect x="1.9" y="2.15" width="3.4" height="1.4" rx="0.7"/><rect x="10.7" y="2.15" width="3.4" height="1.4" rx="0.7"/><rect x="1.1" y="4.6" width="2.6" height="1.3" rx="0.65" transform="rotate(14 2.4 5.25)"/><rect x="12.3" y="4.6" width="2.6" height="1.3" rx="0.65" transform="rotate(-14 13.6 5.25)"/></g><path fill="#D64541" fill-rule="evenodd" d="M12.1 8.1 A4 4 0 1 1 12.099 8.1 Z M11.4 9.5 L11.63 12.4 L12.57 12.4 L12.8 9.5 Z M12.1 13.3 A0.9 0.9 0 1 0 12.101 13.3 Z"/></svg>