<svg xmlns="http://www.w3.org/2000/svg" viewBox="0 0 512 512" width="512" height="512"><defs>
  <clipPath id="field"><rect x="0" y="0" width="512" height="512" rx="112"/></clipPath>
  <linearGradient id="beamL" x1="1" y1="0" x2="0" y2="0">
    <stop offset="0" stop-color="#F2A93B" stop-opacity="0.55"/><stop offset="1" stop-color="#F2A93B" stop-opacity="0"/>
  </linearGradient>
  <linearGradient id="beamR" x1="0" y1="0" x2="1" y2="0">
    <stop offset="0" stop-color="#F2A93B" stop-opacity="0.55"/><stop offset="1" stop-color="#F2A93B" stop-opacity="0"/>
  </linearGradient>
  <radialGradient id="halo" cx="0.5" cy="0.5" r="0.5">
    <stop offset="0" stop-color="#FFD98E" stop-opacity="0.85"/><stop offset="1" stop-color="#FFD98E" stop-opacity="0"/>
  </radialGradient>
</defs><g clip-path="url(#field)"><rect x="0" y="0" width="512" height="512" fill="#16233F"/><rect x="0" y="420.0" width="512" height="512" fill="#22375C"/><path d="M 46 444.0 L 70 408.0 L 88 426.0 L 106 402.0 L 128 444.0 Z" fill="#0C1426"/><path d="M 384 444.0 L 406 414.0 L 422 430.0 L 444 406.0 L 466 444.0 Z" fill="#0C1426"/><path d="M -20 442.0 q 14 -12 28 0 M 8 442.0 q 14 -12 28 0 M 36 442.0 q 14 -12 28 0 M 64 442.0 q 14 -12 28 0 M 92 442.0 q 14 -12 28 0 M 120 442.0 q 14 -12 28 0 M 148 442.0 q 14 -12 28 0 M 176 442.0 q 14 -12 28 0 M 204 442.0 q 14 -12 28 0 M 232 442.0 q 14 -12 28 0 M 260 442.0 q 14 -12 28 0 M 288 442.0 q 14 -12 28 0 M 316 442.0 q 14 -12 28 0 M 344 442.0 q 14 -12 28 0 M 372 442.0 q 14 -12 28 0 M 400 442.0 q 14 -12 28 0 M 428 442.0 q 14 -12 28 0 M 456 442.0 q 14 -12 28 0 M 484 442.0 q 14 -12 28 0 M 512 442.0 q 14 -12 28 0" stroke="#3D5A8A" stroke-width="4" fill="none" opacity="0.9" stroke-linecap="round"/><path d="M -6 464.0 q 14 -12 28 0 M 22 464.0 q 14 -12 28 0 M 50 464.0 q 14 -12 28 0 M 78 464.0 q 14 -12 28 0 M 106 464.0 q 14 -12 28 0 M 134 464.0 q 14 -12 28 0 M 162 464.0 q 14 -12 28 0 M 190 464.0 q 14 -12 28 0 M 218 464.0 q 14 -12 28 0 M 246 464.0 q 14 -12 28 0 M 274 464.0 q 14 -12 28 0 M 302 464.0 q 14 -12 28 0 M 330 464.0 q 14 -12 28 0 M 358 464.0 q 14 -12 28 0 M 386 464.0 q 14 -12 28 0 M 414 464.0 q 14 -12 28 0 M 442 464.0 q 14 -12 28 0 M 470 464.0 q 14 -12 28 0 M 498 464.0 q 14 -12 28 0 M 526 464.0 q 14 -12 28 0" stroke="#3D5A8A" stroke-width="4" fill="none" opacity="0.55" stroke-linecap="round"/><path d="M -20 486.0 q 14 -12 28 0 M 8 486.0 q 14 -12 28 0 M 36 486.0 q 14 -12 28 0 M 64 486.0 q 14 -12 28 0 M 92 486.0 q 14 -12 28 0 M 120 486.0 q 14 -12 28 0 M 148 486.0 q 14 -12 28 0 M 176 486.0 q 14 -12 28 0 M 204 486.0 q 14 -12 28 0 M 232 486.0 q 14 -12 28 0 M 260 486.0 q 14 -12 28 0 M 288 486.0 q 14 -12 28 0 M 316 486.0 q 14 -12 28 0 M 344 486.0 q 14 -12 28 0 M 372 486.0 q 14 -12 28 0 M 400 486.0 q 14 -12 28 0 M 428 486.0 q 14 -12 28 0 M 456 486.0 q 14 -12 28 0 M 484 486.0 q 14 -12 28 0 M 512 486.0 q 14 -12 28 0" stroke="#3D5A8A" stroke-width="4" fill="none" opacity="0.3" stroke-linecap="round"/><circle cx="96" cy="108" r="3" fill="#EAE0C8" opacity="0.55"/><circle cx="416" cy="84" r="2.4" fill="#EAE0C8" opacity="0.55"/><circle cx="388" cy="168" r="2" fill="#EAE0C8" opacity="0.55"/><circle cx="76" cy="196" r="2" fill="#EAE0C8" opacity="0.55"/><path d="M 250.0 90.0 L 0 106.0 L 0 166.0 L 250.0 112.0 Z" fill="url(#beamL)"/><path d="M 262.0 90.0 L 512 106.0 L 512 166.0 L 262.0 112.0 Z" fill="url(#beamR)"/><circle cx="256.0" cy="98.0" r="54" fill="url(#halo)"/><g transform="translate(86.0,108.0) scale(1.0)"><rect x="52" y="330" width="236" height="22" fill="#EAE0C8"/><rect x="52" y="330" width="118" height="22" fill="#C9B48C"/><rect x="52" y="352" width="236" height="3" fill="#A88F66" opacity="0.55"/><path d="M 84 322 L 104 180 L 170 180 L 170 322 Z" fill="#C9B48C"/><path d="M 170 322 L 170 180 L 236 180 L 256 322 Z" fill="#EAE0C8"/><rect x="96" y="170" width="148" height="10" fill="#EAE0C8"/><rect x="96" y="170" width="74" height="10" fill="#C9B48C"/><rect x="96" y="180" width="148" height="3" fill="#A88F66" opacity="0.55"/><path d="M 100 170 L 108 154 L 116 170 Z" fill="#C9B48C"/><path d="M 224 170 L 232 154 L 240 170 Z" fill="#EAE0C8"/><path d="M 156 322 L 156 296 A 14 14 0 0 1 184 296 L 184 322 Z" fill="#0F1930"/><path d="M 126 160 L 136 88 L 170 88 L 170 160 Z" fill="#C9B48C"/><path d="M 170 160 L 170 88 L 204 88 L 214 160 Z" fill="#EAE0C8"/><path d="M 148 160 L 145 88 M 192 160 L 195 88" stroke="#A88F66" stroke-width="2.5" opacity="0.45" fill="none"/><rect x="130" y="78" width="80" height="10" fill="#EAE0C8"/><rect x="130" y="78" width="40" height="10" fill="#C9B48C"/><rect x="130" y="88" width="80" height="3" fill="#A88F66" opacity="0.55"/><path d="M 152 68 L 154 26 L 170 26 L 170 68 Z" fill="#C9B48C"/><path d="M 170 68 L 170 26 L 186 26 L 188 68 Z" fill="#EAE0C8"/><rect x="158" y="34" width="5" height="18" rx="2.5" fill="#0F1930"/><rect x="168" y="34" width="5" height="18" rx="2.5" fill="#0F1930"/><rect x="178" y="34" width="5" height="18" rx="2.5" fill="#0F1930"/><rect x="146" y="16" width="48" height="10" fill="#EAE0C8"/><rect x="146" y="16" width="24" height="10" fill="#C9B48C"/><rect x="146" y="26" width="48" height="3" fill="#A88F66" opacity="0.55"/><path d="M 170 -34 C 178 -22 184 -14 184 -3 A 14 14 0 0 1 156 -3 C 156 -14 162 -22 170 -34 Z" fill="#F2A93B"/>
<path d="M 170 -18 C 174 -12 177 -8 177 -2 A 7 7 0 0 1 163 -2 C 163 -8 166 -12 170 -18 Z" fill="#FFD98E"/></g></g></svg>