<svg xmlns="http://www.w3.org/2000/svg" viewBox="0 0 810 230" width="810" height="230"><g transform="translate(20,20) scale(0.37109375)"><defs>
  <clipPath id="field"><rect x="0" y="0" width="512" height="512" rx="112"/></clipPath>
  <linearGradient id="beamL" x1="1" y1="0" x2="0" y2="0">
    <stop offset="0" stop-color="#F2A93B" stop-opacity="0.55"/><stop offset="1" stop-color="#F2A93B" stop-opacity="0"/>
  </linearGradient>
  <linearGradient id="beamR" x1="0" y1="0" x2="1" y2="0">
    <stop offset="0" stop-color="#F2A93B" stop-opacity="0.55"/><stop offset="1" stop-color="#F2A93B" stop-opacity="0"/>
  </linearGradient>
  <radialGradient id="halo" cx="0.5" cy="0.5" r="0.5">
    <stop offset="0" stop-color="#FFD98E" stop-opacity="0.85"/><stop offset="1" stop-color="#FFD98E" stop-opacity="0"/>
  </radialGradient>
</defs><g clip-path="url(#field)"><rect x="0" y="0" width="512" height="512" fill="#16233F"/><rect x="0" y="420.0" width="512" height="512" fill="#22375C"/><path d="M 46 444.0 L 70 408.0 L 88 426.0 L 106 402.0 L 128 444.0 Z" fill="#0C1426"/><path d="M 384 444.0 L 406 414.0 L 422 430.0 L 444 406.0 L 466 444.0 Z" fill="#0C1426"/><path d="M -20 442.0 q 14 -12 28 0 M 8 442.0 q 14 -12 28 0 M 36 442.0 q 14 -12 28 0 M 64 442.0 q 14 -12 28 0 M 92 442.0 q 14 -12 28 0 M 120 442.0 q 14 -12 28 0 M 148 442.0 q 14 -12 28 0 M 176 442.0 q 14 -12 28 0 M 204 442.0 q 14 -12 28 0 M 232 442.0 q 14 -12 28 0 M 260 442.0 q 14 -12 28 0 M 288 442.0 q 14 -12 28 0 M 316 442.0 q 14 -12 28 0 M 344 442.0 q 14 -12 28 0 M 372 442.0 q 14 -12 28 0 M 400 442.0 q 14 -12 28 0 M 428 442.0 q 14 -12 28 0 M 456 442.0 q 14 -12 28 0 M 484 442.0 q 14 -12 28 0 M 512 442.0 q 14 -12 28 0" stroke="#3D5A8A" stroke-width="4" fill="none" opacity="0.9" stroke-linecap="round"/><path d="M -6 464.0 q 14 -12 28 0 M 22 464.0 q 14 -12 28 0 M 50 464.0 q 14 -12 28 0 M 78 464.0 q 14 -12 28 0 M 106 464.0 q 14 -12 28 0 M 134 464.0 q 14 -12 28 0 M 162 464.0 q 14 -12 28 0 M 190 464.0 q 14 -12 28 0 M 218 464.0 q 14 -12 28 0 M 246 464.0 q 14 -12 28 0 M 274 464.0 q 14 -12 28 0 M 302 464.0 q 14 -12 28 0 M 330 464.0 q 14 -12 28 0 M 358 464.0 q 14 -12 28 0 M 386 464.0 q 14 -12 28 0 M 414 464.0 q 14 -12 28 0 M 442 464.0 q 14 -12 28 0 M 470 464.0 q 14 -12 28 0 M 498 464.0 q 14 -12 28 0 M 526 464.0 q 14 -12 28 0" stroke="#3D5A8A" stroke-width="4" fill="none" opacity="0.55" stroke-linecap="round"/><path d="M -20 486.0 q 14 -12 28 0 M 8 486.0 q 14 -12 28 0 M 36 486.0 q 14 -12 28 0 M 64 486.0 q 14 -12 28 0 M 92 486.0 q 14 -12 28 0 M 120 486.0 q 14 -12 28 0 M 148 486.0 q 14 -12 28 0 M 176 486.0 q 14 -12 28 0 M 204 486.0 q 14 -12 28 0 M 232 486.0 q 14 -12 28 0 M 260 486.0 q 14 -12 28 0 M 288 486.0 q 14 -12 28 0 M 316 486.0 q 14 -12 28 0 M 344 486.0 q 14 -12 28 0 M 372 486.0 q 14 -12 28 0 M 400 486.0 q 14 -12 28 0 M 428 486.0 q 14 -12 28 0 M 456 486.0 q 14 -12 28 0 M 484 486.0 q 14 -12 28 0 M 512 486.0 q 14 -12 28 0" stroke="#3D5A8A" stroke-width="4" fill="none" opacity="0.3" stroke-linecap="round"/><circle cx="96" cy="108" r="3" fill="#EAE0C8" opacity="0.55"/><circle cx="416" cy="84" r="2.4" fill="#EAE0C8" opacity="0.55"/><circle cx="388" cy="168" r="2" fill="#EAE0C8" opacity="0.55"/><circle cx="76" cy="196" r="2" fill="#EAE0C8" opacity="0.55"/><path d="M 250.0 90.0 L 0 106.0 L 0 166.0 L 250.0 112.0 Z" fill="url(#beamL)"/><path d="M 262.0 90.0 L 512 106.0 L 512 166.0 L 262.0 112.0 Z" fill="url(#beamR)"/><circle cx="256.0" cy="98.0" r="54" fill="url(#halo)"/><g transform="translate(86.0,108.0) scale(1.0)"><rect x="52" y="330" width="236" height="22" fill="#EAE0C8"/><rect x="52" y="330" width="118" height="22" fill="#C9B48C"/><rect x="52" y="352" width="236" height="3" fill="#A88F66" opacity="0.55"/><path d="M 84 322 L 104 180 L 170 180 L 170 322 Z" fill="#C9B48C"/><path d="M 170 322 L 170 180 L 236 180 L 256 322 Z" fill="#EAE0C8"/><rect x="96" y="170" width="148" height="10" fill="#EAE0C8"/><rect x="96" y="170" width="74" height="10" fill="#C9B48C"/><rect x="96" y="180" width="148" height="3" fill="#A88F66" opacity="0.55"/><path d="M 100 170 L 108 154 L 116 170 Z" fill="#C9B48C"/><path d="M 224 170 L 232 154 L 240 170 Z" fill="#EAE0C8"/><path d="M 156 322 L 156 296 A 14 14 0 0 1 184 296 L 184 322 Z" fill="#0F1930"/><path d="M 126 160 L 136 88 L 170 88 L 170 160 Z" fill="#C9B48C"/><path d="M 170 160 L 170 88 L 204 88 L 214 160 Z" fill="#EAE0C8"/><path d="M 148 160 L 145 88 M 192 160 L 195 88" stroke="#A88F66" stroke-width="2.5" opacity="0.45" fill="none"/><rect x="130" y="78" width="80" height="10" fill="#EAE0C8"/><rect x="130" y="78" width="40" height="10" fill="#C9B48C"/><rect x="130" y="88" width="80" height="3" fill="#A88F66" opacity="0.55"/><path d="M 152 68 L 154 26 L 170 26 L 170 68 Z" fill="#C9B48C"/><path d="M 170 68 L 170 26 L 186 26 L 188 68 Z" fill="#EAE0C8"/><rect x="158" y="34" width="5" height="18" rx="2.5" fill="#0F1930"/><rect x="168" y="34" width="5" height="18" rx="2.5" fill="#0F1930"/><rect x="178" y="34" width="5" height="18" rx="2.5" fill="#0F1930"/><rect x="146" y="16" width="48" height="10" fill="#EAE0C8"/><rect x="146" y="16" width="24" height="10" fill="#C9B48C"/><rect x="146" y="26" width="48" height="3" fill="#A88F66" opacity="0.55"/><path d="M 170 -34 C 178 -22 184 -14 184 -3 A 14 14 0 0 1 156 -3 C 156 -14 162 -22 170 -34 Z" fill="#F2A93B"/>
<path d="M 170 -18 C 174 -12 177 -8 177 -2 A 7 7 0 0 1 163 -2 C 163 -8 166 -12 170 -18 Z" fill="#FFD98E"/></g></g></g><g transform="translate(256,156.3)" fill="#1E2B47"><path transform="translate(0.00,0) scale(0.057617,-0.057617)" d="M354 635Q452 617 533.5 631.5Q615 646 673.5 693.5Q732 741 764.5 822.0Q797 903 797 1020Q797 1101 780.0 1167.5Q763 1234 729.5 1280.5Q696 1327 645.0 1352.5Q594 1378 526 1378Q483 1378 451.0 1374.5Q419 1371 397 1367Q371 1362 354 1356ZM143 1434Q163 1432 185 1430Q204 1428 227.5 1427.5Q251 1427 276 1427Q315 1427 381.5 1436.5Q448 1446 551 1446Q647 1446 728.5 1418.0Q810 1390 870.0 1336.0Q930 1282 963.5 1204.5Q997 1127 997 1028Q997 895 944.0 798.0Q891 701 802.0 641.0Q713 581 597.0 559.5Q481 538 354 557V391Q354 306 356.5 242.5Q359 179 362.5 133.0Q366 87 371.5 56.0Q377 25 383 4V0H143V4Q149 25 154.5 56.0Q160 87 164.0 133.0Q168 179 170.0 242.5Q172 306 172 391V1042Q172 1127 170.0 1190.5Q168 1254 164.0 1300.5Q160 1347 154.5 1378.0Q149 1409 143 1430Z"/><path transform="translate(77.44,0) scale(0.057617,-0.057617)" d="M1135 686Q1095 687 1035.0 687.5Q975 688 904.5 689.0Q834 690 757.5 690.5Q681 691 608.0 691.5Q535 692 469.0 691.0Q403 690 354 688V391Q354 306 356.5 242.5Q359 179 362.5 133.0Q366 87 371.5 56.0Q377 25 383 4V0H143V4Q149 25 154.5 56.0Q160 87 164.0 133.0Q168 179 170.0 242.5Q172 306 172 391V1042Q172 1127 170.0 1190.5Q168 1254 164.0 1300.5Q160 1347 154.5 1378.0Q149 1409 143 1430V1434H383V1430Q377 1409 371.5 1378.0Q366 1347 362.5 1300.5Q359 1254 356.5 1190.5Q354 1127 354 1042V786Q406 784 472.0 783.5Q538 783 610.0 783.5Q682 784 756.5 785.0Q831 786 900.5 787.5Q970 789 1030.5 791.0Q1091 793 1135 795V1042Q1135 1127 1132.5 1190.5Q1130 1254 1126.5 1300.5Q1123 1347 1117.5 1378.0Q1112 1409 1106 1430V1434H1346V1430Q1340 1409 1334.5 1378.0Q1329 1347 1325.0 1300.5Q1321 1254 1319.0 1190.5Q1317 1127 1317 1042V391Q1317 306 1319.0 242.5Q1321 179 1325.0 133.0Q1329 87 1334.5 56.0Q1340 25 1346 4V0H1106V4Q1112 25 1117.5 56.0Q1123 87 1126.5 133.0Q1130 179 1132.5 242.5Q1135 306 1135 391Z"/><path transform="translate(180.23,0) scale(0.057617,-0.057617)" d="M1135 0V4Q1137 9 1138.0 19.0Q1139 29 1139 37Q1139 68 1130.5 105.5Q1122 143 1098 199L977 471Q921 473 828.0 473.0Q735 473 627 473Q548 473 474.5 473.0Q401 473 342 471L227 207Q212 170 195.0 126.0Q178 82 178 37Q178 24 180.0 15.5Q182 7 184 4V0H-20V4Q-2 23 25.0 71.5Q52 120 84 193L657 1464H737L1280 242Q1299 199 1319.5 158.5Q1340 118 1358.0 86.0Q1376 54 1390.0 32.0Q1404 10 1409 4V0ZM487 559Q545 559 606.0 559.5Q667 560 725.5 560.5Q784 561 838.0 561.5Q892 562 936 563L655 1198L379 559Z"/><path transform="translate(277.26,0) scale(0.057617,-0.057617)" d="M354 391Q354 306 356.5 242.5Q359 179 362.5 133.0Q366 87 371.5 56.0Q377 25 383 4V0H143V4Q149 25 154.5 56.0Q160 87 163.5 133.0Q167 179 169.5 242.0Q172 305 172 391V1042Q172 1127 169.5 1190.5Q167 1254 163.5 1300.0Q160 1346 154.5 1377.5Q149 1409 143 1430V1434L185 1430Q204 1428 227.5 1427.5Q251 1427 276 1427Q315 1427 381.5 1436.5Q448 1446 551 1446Q647 1446 728.5 1420.0Q810 1394 870.0 1344.0Q930 1294 963.5 1221.5Q997 1149 997 1057Q997 985 978.5 923.5Q960 862 926.5 812.0Q893 762 846.0 723.5Q799 685 741 659L1092 166Q1118 129 1140.5 102.0Q1163 75 1183.5 55.5Q1204 36 1223.0 23.5Q1242 11 1262 4V0H973Q970 19 953.5 50.5Q937 82 915 113L561 612Q538 610 515.0 608.5Q492 607 468 607Q440 607 411.5 609.0Q383 611 354 616ZM354 694Q381 688 409.0 685.5Q437 683 463 683Q538 683 600.0 705.5Q662 728 705.5 774.0Q749 820 773.0 888.5Q797 957 797 1049Q797 1124 780.0 1185.0Q763 1246 729.5 1288.5Q696 1331 645.0 1354.5Q594 1378 526 1378Q457 1378 416.0 1371.0Q375 1364 354 1356Z"/><path transform="translate(363.98,0) scale(0.057617,-0.057617)" d="M797 1458Q964 1458 1105.5 1403.5Q1247 1349 1350.0 1250.5Q1453 1152 1511.0 1014.0Q1569 876 1569 709Q1569 614 1547.0 522.0Q1525 430 1482.5 348.0Q1440 266 1378.0 196.5Q1316 127 1236.5 76.5Q1157 26 1061.0 -2.5Q965 -31 854 -31Q687 -31 545.5 22.5Q404 76 301.0 174.0Q198 272 140.0 409.5Q82 547 82 715Q82 810 104.0 902.0Q126 994 168.5 1077.0Q211 1160 272.5 1229.5Q334 1299 413.5 1350.0Q493 1401 589.5 1429.5Q686 1458 797 1458ZM854 59Q965 59 1057.0 99.0Q1149 139 1215.5 215.0Q1282 291 1319.0 400.5Q1356 510 1356 649Q1356 803 1320.5 934.5Q1285 1066 1215.0 1162.5Q1145 1259 1040.5 1313.5Q936 1368 797 1368Q686 1368 594.0 1328.5Q502 1289 435.5 1214.0Q369 1139 332.0 1030.0Q295 921 295 782Q295 629 330.0 496.5Q365 364 435.0 267.0Q505 170 610.0 114.5Q715 59 854 59Z"/><path transform="translate(476.11,0) scale(0.057617,-0.057617)" d="M741 1206H719Q711 1229 693.5 1258.0Q676 1287 647.5 1312.5Q619 1338 578.5 1355.0Q538 1372 483 1372Q434 1372 396.0 1357.0Q358 1342 332.5 1315.0Q307 1288 294.0 1251.0Q281 1214 281 1169Q281 1097 321.5 1031.5Q362 966 423.0 902.0Q484 838 555.0 774.0Q626 710 687.0 641.0Q748 572 788.5 496.5Q829 421 829 334Q829 269 806.5 203.5Q784 138 737.0 86.0Q690 34 616.0 1.5Q542 -31 440 -31Q383 -31 331.5 -20.5Q280 -10 236.5 5.5Q193 21 158.5 39.0Q124 57 102 72L125 293H150Q161 246 186.0 203.5Q211 161 247.5 128.5Q284 96 331.0 76.5Q378 57 434 57Q485 57 525.5 72.5Q566 88 595.0 115.5Q624 143 639.5 181.0Q655 219 655 264Q655 327 632.0 380.5Q609 434 571.5 482.0Q534 530 486.5 575.0Q439 620 389.0 665.5Q339 711 291.5 759.0Q244 807 206.5 861.5Q169 916 146.0 978.5Q123 1041 123 1116Q123 1195 153.5 1258.5Q184 1322 234.5 1367.0Q285 1412 349.0 1436.0Q413 1460 481 1460Q531 1460 573.0 1452.0Q615 1444 648.5 1433.0Q682 1422 707.0 1411.0Q732 1400 748 1393Z"/></g></svg>